G04 ================== begin FILE IDENTIFICATION RECORD ==================*
G04 Layout Name:  C:/Users/user/Desktop/work/ex2_rlc/allegro/ex_rlc.brd*
G04 Film Name:    SilkB*
G04 File Format:  Gerber RS274X*
G04 File Origin:  Cadence Allegro 17.2-S038*
G04 Origin Date:  Thu Jul 11 11:34:35 2019*
G04 *
G04 Layer:  REF DES/SILKSCREEN_TOP*
G04 Layer:  PACKAGE GEOMETRY/SILKSCREEN_BOTTOM*
G04 Layer:  BOARD GEOMETRY/SILKSCREEN_BOTTOM*
G04 *
G04 Offset:    (0.000 0.000)*
G04 Mirror:    No*
G04 Mode:      Positive*
G04 Rotation:  0*
G04 FullContactRelief:  No*
G04 UndefLineWidth:     0.200*
G04 ================== end FILE IDENTIFICATION RECORD ====================*
%FSLAX25Y25*MOMM*%
%IR0*IPPOS*OFA0.00000B0.00000*MIA0B0*SFA1.00000B1.00000*%
%ADD10C,.2*%
G75*
%LPD*%
G75*
G54D10*
G01X15843900Y3656500D02*
X15848600Y3660800D01*
X15852700Y3661800D01*
X15858100Y3659700D01*
X15862100Y3655500D01*
X15864800Y3648100D01*
X15865500Y3640700D01*
X15864800Y3633300D01*
X15862100Y3626900D01*
X15858100Y3621600D01*
X15852700Y3619500D01*
X15847900Y3621600D01*
X15843900Y3625800D01*
G01X15798900Y3619500D02*
X15803000Y3620600D01*
X15807000Y3624800D01*
X15809700Y3632200D01*
X15811100Y3640700D01*
X15809700Y3649100D01*
X15807000Y3656500D01*
X15803000Y3660800D01*
X15798900Y3661800D01*
X15794800Y3660800D01*
X15790800Y3656500D01*
X15788100Y3649100D01*
X15787400Y3640700D01*
X15788100Y3632200D01*
X15790800Y3624800D01*
X15794800Y3620600D01*
X15798900Y3619500D01*
G01X15732300Y3656500D02*
X15737000Y3660800D01*
X15741100Y3661800D01*
X15746500Y3659700D01*
X15750500Y3655500D01*
X15753200Y3648100D01*
X15753900Y3640700D01*
X15753200Y3633300D01*
X15750500Y3626900D01*
X15746500Y3621600D01*
X15741100Y3619500D01*
X15736300Y3621600D01*
X15732300Y3625800D01*
G01X15698800Y3619500D02*
Y3683000D01*
G01Y3652300D02*
X15695400Y3657600D01*
X15692000Y3660800D01*
X15686600Y3661800D01*
X15682600Y3660800D01*
X15677800Y3656500D01*
X15675800Y3650200D01*
Y3619500D01*
G01X15619300D02*
Y3661800D01*
G01Y3654400D02*
X15622000Y3658700D01*
X15626100Y3660800D01*
X15630800Y3661800D01*
X15635600Y3659700D01*
X15639600Y3655500D01*
X15642300Y3649100D01*
X15643700Y3640700D01*
X15642300Y3632200D01*
X15639600Y3625800D01*
X15635600Y3621600D01*
X15630800Y3619500D01*
X15626100Y3620600D01*
X15622000Y3623700D01*
X15619300Y3628000D01*
G01X15585200Y3619500D02*
Y3661800D01*
G01Y3653400D02*
X15581800Y3657600D01*
X15578400Y3660800D01*
X15573700Y3661800D01*
X15570300Y3660800D01*
X15566200Y3657600D01*
G01X15540200Y3619500D02*
Y3661800D01*
G01Y3650200D02*
X15538200Y3655500D01*
X15534800Y3659700D01*
X15530000Y3661800D01*
X15525300Y3659700D01*
X15521900Y3655500D01*
X15519900Y3650200D01*
Y3619500D01*
G01Y3650200D02*
X15517900Y3655500D01*
X15514500Y3659700D01*
X15509800Y3661800D01*
X15505000Y3659700D01*
X15501600Y3655500D01*
X15499600Y3649100D01*
Y3619500D01*
G01X15421200Y3672400D02*
X15417100Y3678800D01*
X15412400Y3681900D01*
X15406900Y3683000D01*
X15400200Y3680900D01*
X15395400Y3675600D01*
X15394100Y3669200D01*
X15394800Y3662900D01*
X15397500Y3657600D01*
X15411000Y3647000D01*
X15417100Y3639600D01*
X15421200Y3629000D01*
X15422500Y3619500D01*
X15394100D01*
G01X15352500Y3683000D02*
X15357900Y3680900D01*
X15362000Y3675600D01*
X15364700Y3669200D01*
X15366700Y3660800D01*
X15367400Y3651200D01*
X15366700Y3641700D01*
X15364700Y3633300D01*
X15362000Y3626900D01*
X15357900Y3621600D01*
X15352500Y3619500D01*
X15347100Y3621600D01*
X15343000Y3626900D01*
X15340300Y3633300D01*
X15338300Y3641700D01*
X15337600Y3651200D01*
X15338300Y3660800D01*
X15340300Y3669200D01*
X15343000Y3675600D01*
X15347100Y3680900D01*
X15352500Y3683000D01*
G01X15296700Y3619500D02*
Y3683000D01*
X15304800Y3670300D01*
G01Y3619500D02*
X15288600D01*
G01X15252400Y3626900D02*
X15247700Y3621600D01*
X15242300Y3619500D01*
X15236800Y3621600D01*
X15232100Y3628000D01*
X15228700Y3637500D01*
X15227400Y3647000D01*
Y3658700D01*
X15228700Y3668200D01*
X15232100Y3676600D01*
X15236200Y3680900D01*
X15240900Y3683000D01*
X15246300Y3680900D01*
X15250400Y3676600D01*
X15253100Y3670300D01*
X15254400Y3661800D01*
X15253100Y3654400D01*
X15249700Y3647000D01*
X15245600Y3642800D01*
X15240900Y3641700D01*
X15235500Y3643800D01*
X15231400Y3649100D01*
X15227400Y3658700D01*
G01X15129300Y3683000D02*
X15134700Y3680900D01*
X15138800Y3675600D01*
X15141500Y3669200D01*
X15143500Y3660800D01*
X15144200Y3651200D01*
X15143500Y3641700D01*
X15141500Y3633300D01*
X15138800Y3626900D01*
X15134700Y3621600D01*
X15129300Y3619500D01*
X15123900Y3621600D01*
X15119800Y3626900D01*
X15117100Y3633300D01*
X15115100Y3641700D01*
X15114400Y3651200D01*
X15115100Y3660800D01*
X15117100Y3669200D01*
X15119800Y3675600D01*
X15123900Y3680900D01*
X15129300Y3683000D01*
G01X15074900Y3619500D02*
X15073500Y3633300D01*
X15071500Y3644900D01*
X15068800Y3655500D01*
X15065400Y3667100D01*
X15060000Y3683000D01*
X15087000D01*
G01X14961900Y3619500D02*
Y3683000D01*
X14970000Y3670300D01*
G01Y3619500D02*
X14953800D01*
G01X14906100D02*
Y3683000D01*
X14914200Y3670300D01*
G01Y3619500D02*
X14898000D01*
G01X14804600Y3626900D02*
X14801300Y3622700D01*
X14796500Y3619500D01*
X14792500D01*
X14788400Y3621600D01*
X14785700Y3624800D01*
X14784400Y3629000D01*
X14785000Y3635400D01*
X14787700Y3638500D01*
X14799900Y3644900D01*
X14802600Y3652300D01*
X14801300Y3657600D01*
X14798600Y3660800D01*
X14794500Y3661800D01*
X14790400Y3660800D01*
X14786400Y3657600D01*
G01X14755600Y3661800D02*
X14747500Y3619500D01*
X14738700Y3661800D01*
X14729900Y3619500D01*
X14721800Y3661800D01*
G01X14693000Y3626900D02*
X14689700Y3622700D01*
X14684900Y3619500D01*
X14680900D01*
X14676800Y3621600D01*
X14674100Y3624800D01*
X14672800Y3629000D01*
X14673400Y3635400D01*
X14676100Y3638500D01*
X14688300Y3644900D01*
X14691000Y3652300D01*
X14689700Y3657600D01*
X14687000Y3660800D01*
X14682900Y3661800D01*
X14678800Y3660800D01*
X14674800Y3657600D01*
G01X14638600Y3619500D02*
Y3683000D01*
G01Y3652300D02*
X14635200Y3657600D01*
X14631800Y3660800D01*
X14626400Y3661800D01*
X14622400Y3660800D01*
X14617600Y3656500D01*
X14615600Y3650200D01*
Y3619500D01*
G01X14571300Y3661800D02*
Y3619500D01*
G01Y3678800D02*
X14572700Y3679800D01*
Y3681900D01*
X14571300Y3683000D01*
X14569900Y3681900D01*
Y3679800D01*
X14571300Y3678800D01*
G01X14527000Y3619500D02*
Y3661800D01*
G01Y3651200D02*
X14524300Y3656500D01*
X14520200Y3660800D01*
X14514800Y3661800D01*
X14510100Y3660800D01*
X14506000Y3656500D01*
X14504000Y3649100D01*
Y3619500D01*
G01X15840900Y5116000D02*
X15850500Y5109600D01*
X15861800Y5105400D01*
X15874600D01*
X15889100Y5111800D01*
X15900400Y5122300D01*
X15908400Y5135000D01*
X15914900Y5156200D01*
X15916500Y5175300D01*
X15913200Y5194300D01*
X15908400Y5207000D01*
X15898800Y5219700D01*
X15887500Y5228200D01*
X15876300Y5232400D01*
X15865000D01*
X15853700Y5228200D01*
X15844100Y5221800D01*
X15836000Y5213400D01*
G01X15746800Y5232400D02*
Y5105400D01*
X15766100Y5130800D01*
G01Y5232400D02*
X15727500D01*
G01X16151400Y5638800D02*
Y5717500D01*
X16175800D01*
X16183600Y5713600D01*
X16188400Y5708300D01*
X16190400Y5697800D01*
X16188400Y5687300D01*
X16182600Y5680800D01*
X16175800Y5676800D01*
X16151400D01*
G01X16175800D02*
X16190400Y5638800D01*
G01X16231100Y5704400D02*
X16236900Y5712300D01*
X16243800Y5716200D01*
X16251500Y5717500D01*
X16261300Y5714900D01*
X16268100Y5708300D01*
X16270000Y5700400D01*
X16269100Y5692600D01*
X16265200Y5686000D01*
X16245700Y5672900D01*
X16236900Y5663700D01*
X16231100Y5650600D01*
X16229200Y5638800D01*
X16270000D01*
G01X17402000Y7464600D02*
X17397100Y7472400D01*
X17391300Y7477700D01*
X17384400Y7480300D01*
X17376700Y7477700D01*
X17370800Y7472400D01*
X17365000Y7464600D01*
X17363000Y7454100D01*
Y7401600D01*
G01X17303800Y7480300D02*
Y7401600D01*
X17315500Y7417300D01*
G01Y7480300D02*
X17292100D01*
G01X18816800Y4772700D02*
Y4851400D01*
X18777800D01*
G01X18718600D02*
Y4772700D01*
X18730300Y4788400D01*
G01Y4851400D02*
X18706900D01*
G01X20180300Y7470600D02*
X20259000D01*
Y7446200D01*
X20255100Y7438400D01*
X20249800Y7433600D01*
X20239300Y7431600D01*
X20228800Y7433600D01*
X20222300Y7439400D01*
X20218300Y7446200D01*
Y7470600D01*
G01Y7446200D02*
X20180300Y7431600D01*
G01Y7372400D02*
X20259000D01*
X20243300Y7384100D01*
G01X20180300D02*
Y7360700D01*
M02*
