G04 ================== begin FILE IDENTIFICATION RECORD ==================*
G04 Layout Name:  C:/Users/user/Desktop/work/ex2_rlc/allegro/ex_rlc.brd*
G04 Film Name:    TOP*
G04 File Format:  Gerber RS274X*
G04 File Origin:  Cadence Allegro 17.2-S038*
G04 Origin Date:  Thu Jul 11 11:34:35 2019*
G04 *
G04 Layer:  ETCH/TOP*
G04 Layer:  PIN/TOP*
G04 Layer:  VIA CLASS/TOP*
G04 *
G04 Offset:    (0.000 0.000)*
G04 Mirror:    No*
G04 Mode:      Positive*
G04 Rotation:  0*
G04 FullContactRelief:  No*
G04 UndefLineWidth:     0.000*
G04 ================== end FILE IDENTIFICATION RECORD ====================*
%FSLAX25Y25*MOMM*%
%IR0*IPPOS*OFA0.00000B0.00000*MIA0B0*SFA1.00000B1.00000*%
%ADD11C,1.524*%
%ADD12C,1.651*%
%ADD13R,1.27X1.6*%
%ADD10C,.635*%
%ADD14C,.254*%
%ADD17C,1.91*%
%ADD16C,1.782*%
%ADD15R,5.084X5.084*%
G75*
%LPD*%
G75*
G36*
G01X18339000Y8255900D02*
X20675400D01*
Y7784900D01*
X21177900D01*
Y4356300D01*
X20688100D01*
Y3856100D01*
X14778100D01*
Y8255900D01*
X14795300D01*
Y7746800D01*
X15303700D01*
Y8255900D01*
X15493800D01*
Y7348000D01*
X16441200Y6400600D01*
X17950400D01*
X18339000Y6789200D01*
Y7581700D01*
X19470500D01*
G03X19645500I87500J38300D01*
G01X19685000D01*
G03Y7658300I0J38300D01*
G01X19645500D01*
G03X19470500I-87500J-38300D01*
G01X18339000D01*
Y8255900D01*
G37*
G36*
G01X15506700D02*
X18326100D01*
Y6794500D01*
X17945100Y6413500D01*
X16446500D01*
X16156100Y6703900D01*
X16988200Y7536000D01*
X16991100Y7535100D01*
G03X16933100Y7593100I26900J84900D01*
G01X16934000Y7590200D01*
X16101900Y6758100D01*
X15506700Y7353300D01*
Y8255900D01*
G37*
%LPC*%
G75*
G36*
G01X15605100Y4978200D02*
X15333300Y5250000D01*
X15330400Y5249100D01*
G02X15388400Y5307100I-26900J84900D01*
G01X15387500Y5304200D01*
X15636900Y5054800D01*
X15914500D01*
G02X16089500I87500J-38300D01*
G01X16125900D01*
X16189400Y4991300D01*
X18364000D01*
Y5033000D01*
G02X18376900Y5045900I12900J0D01*
G01X18503900D01*
G02X18516800Y5033000I0J-12900D01*
G01Y4873000D01*
G02X18503900Y4860100I-12900J0D01*
G01X18376900D01*
G02X18364000Y4873000I0J12900D01*
G01Y4914700D01*
X16157600D01*
X16101000Y4971300D01*
G03X16084900Y4969200I-7250J-7185D01*
G02X15914500Y4978200I-82939J47317D01*
G01X15605100D01*
G37*
G36*
G01X20535700Y6772300D02*
Y7532500D01*
G02X20612300I38300J87500D01*
G01Y6740500D01*
X18884500Y5012700D01*
X18868000D01*
X18847000Y4991700D01*
Y4873000D01*
G02X18834100Y4860100I-12900J0D01*
G01X18707100D01*
G02X18694200Y4873000I0J12900D01*
G01Y5033000D01*
G02X18707100Y5045900I12900J0D01*
G01X18792800D01*
X18836200Y5089300D01*
X18852700D01*
X20535700Y6772300D01*
G37*
G54D17*
X16002000Y6032500D03*
G54D16*
X15303500Y5588000D03*
X17272000Y7620000D03*
G54D15*
X15049500Y4127500D03*
%LPD*%
G75*
G54D10*
X15049500Y4127500D03*
Y8001000D03*
X20942300Y4102100D03*
X20929600Y8039100D03*
G54D11*
X15303500Y5334000D03*
Y5588000D03*
X17018000Y7620000D03*
X17272000D03*
G54D12*
X16002000Y5016500D03*
Y6032500D03*
X19558000Y7620000D03*
X20574000D03*
G54D13*
X18440400Y4953000D03*
X18770600D03*
G54D14*
G01X16002000Y5016500D02*
X15621000D01*
X15303500Y5334000D01*
G01Y5588000D02*
X15557500D01*
G01D02*
X16002000Y6032500D01*
G01X15303500Y5493800D02*
Y5588000D01*
G01D02*
Y5682200D01*
G01X15209300Y5588000D02*
X15303500D01*
G01X18440400Y4953000D02*
X16173500D01*
X16110000Y5016500D01*
X16002000D01*
G01Y6032500D02*
Y6604000D01*
G01Y5931900D02*
Y6032500D01*
G01X15901400D02*
X16002000D01*
G01D02*
X16102600D01*
G01X16002000Y6604000D02*
X17018000Y7620000D01*
G01X17208500Y7683500D02*
X17310100D01*
Y7620000D01*
X19558000D01*
G01X17272000Y7525800D02*
Y7620000D01*
G01D02*
Y7714200D01*
G01X17177800Y7620000D02*
X17272000D01*
G01X20574000D02*
Y6756400D01*
X18868600Y5051000D01*
X18852100D01*
X18770600Y4969500D01*
Y4953000D01*
G01X19685000Y7620000D02*
X19558000D01*
M02*
